<?xml version="1.0" encoding="UTF-8"?>
<!DOCTYPE svg PUBLIC "-//W3C//DTD SVG 1.1//EN" "http://www.w3.org/Graphics/SVG/1.1/DTD/svg11.dtd">
<svg version="1.1" xmlns="http://www.w3.org/2000/svg" xmlns:xlink="http://www.w3.org/1999/xlink" x="0" y="0" width="179.85" height="179.85" viewBox="0, 0, 179.85, 179.85">
  <g id="Dial" transform="translate(-429.127, -269.176)">
    <g>
      <path d="M606.914,340.037 C617.442,388.562 586.64,436.434 538.116,446.962 C489.591,457.491 441.719,426.689 431.19,378.165 C420.662,329.64 451.464,281.768 499.988,271.239 C548.513,260.711 596.385,291.512 606.914,340.037 z" fill="#686868"/>
      <path d="M522.546,269.241 C564.538,271.992 596.947,299.127 606.914,340.037 C617.442,388.562 586.64,436.434 538.116,446.962 C489.591,457.491 441.719,426.689 431.19,378.165 C420.662,329.64 451.464,281.768 499.988,271.239 C505.402,270.207 507.167,269.752 513.588,269.348 C516.569,269.161 519.56,269.277 522.546,269.241 z M519.678,272.15 C513.26,272.016 506.921,273.08 500.624,274.171 C453.719,284.348 423.945,330.623 434.122,377.528 C444.299,424.434 490.574,454.208 537.479,444.03 C584.385,433.853 614.159,387.579 603.982,340.673 C596.791,308.354 571.558,282.288 539.262,274.557 C531.877,272.789 529.985,272.904 522.43,272.239 L519.678,272.15 z" fill="#929292"/>
    </g>
    <path d="M519.552,275.979 L519.552,287.168" fill-opacity="0" stroke="#FFFFFF" stroke-width="3"/>
  </g>
</svg>
