<?xml version="1.0" encoding="UTF-8"?>
<!DOCTYPE svg PUBLIC "-//W3C//DTD SVG 1.1//EN" "http://www.w3.org/Graphics/SVG/1.1/DTD/svg11.dtd">
<svg version="1.1" xmlns="http://www.w3.org/2000/svg" xmlns:xlink="http://www.w3.org/1999/xlink" x="0" y="0" width="292.988" height="453.709" viewBox="0, 0, 292.988, 453.709">
  <g id="Speaker" transform="translate(-31.907, -157.145)">
    <path d="M299.608,157.145 L299.608,610.855 L324.896,563.096 L324.896,246.379 L299.608,157.145" fill="#572800"/>
    <path d="M31.907,157.145 L299.608,157.145 L299.608,610.855 L31.907,610.855 L31.907,157.145 z" fill="#833F00"/>
    <path d="M165.758,349.803 C130.13,349.803 101.248,320.921 101.248,285.293 C101.248,249.665 130.13,220.782 165.758,220.782 C201.386,220.782 230.268,249.665 230.268,285.293 C230.268,320.921 201.386,349.803 165.758,349.803 z" fill="#572800"/>
    <path d="M165.758,338.292 C136.487,338.292 112.758,314.564 112.758,285.293 C112.758,256.022 136.487,232.293 165.758,232.293 C195.029,232.293 218.757,256.022 218.757,285.293 C218.757,314.564 195.029,338.292 165.758,338.292 z" fill="#000000"/>
    <path d="M165.758,565.361 C113.402,565.361 70.959,522.918 70.959,470.562 C70.959,418.206 113.402,375.764 165.758,375.764 C218.114,375.764 260.557,418.206 260.557,470.562 C260.557,522.918 218.114,565.361 165.758,565.361 z" fill="#572800"/>
    <path d="M165.758,548.446 C122.744,548.446 87.874,513.576 87.874,470.562 C87.874,427.548 122.744,392.679 165.758,392.679 C208.772,392.679 243.641,427.548 243.641,470.562 C243.641,513.576 208.772,548.446 165.758,548.446 z" fill="#000000"/>
    <path d="M165.758,291.586 C162.282,291.586 159.464,288.769 159.464,285.293 C159.464,281.817 162.282,278.999 165.758,278.999 C169.234,278.999 172.052,281.817 172.052,285.293 C172.052,288.769 169.234,291.586 165.758,291.586 z" fill="#515151"/>
    <path d="M165.758,345.87 C164.615,345.87 163.688,344.944 163.688,343.8 C163.688,342.657 164.615,341.73 165.758,341.73 C166.901,341.73 167.828,342.657 167.828,343.8 C167.828,344.944 166.901,345.87 165.758,345.87 z" fill="#000000"/>
    <path d="M165.758,229.106 C164.615,229.106 163.688,228.18 163.688,227.036 C163.688,225.893 164.615,224.966 165.758,224.966 C166.901,224.966 167.828,225.893 167.828,227.036 C167.828,228.18 166.901,229.106 165.758,229.106 z" fill="#000000"/>
    <path d="M293.499,165.678 C292.356,165.678 291.429,164.752 291.429,163.608 C291.429,162.465 292.356,161.538 293.499,161.538 C294.642,161.538 295.569,162.465 295.569,163.608 C295.569,164.752 294.642,165.678 293.499,165.678 z" fill="#000000"/>
    <path d="M43.028,169.818 C41.885,169.818 40.958,168.892 40.958,167.748 C40.958,166.605 41.885,165.678 43.028,165.678 C44.172,165.678 45.098,166.605 45.098,167.748 C45.098,168.892 44.172,169.818 43.028,169.818 z" fill="#000000"/>
    <path d="M289.359,600.703 C288.216,600.703 287.289,599.776 287.289,598.633 C287.289,597.49 288.216,596.563 289.359,596.563 C290.502,596.563 291.429,597.49 291.429,598.633 C291.429,599.776 290.502,600.703 289.359,600.703 z" fill="#000000"/>
    <path d="M43.028,600.703 C41.885,600.703 40.958,599.776 40.958,598.633 C40.958,597.49 41.885,596.563 43.028,596.563 C44.172,596.563 45.098,597.49 45.098,598.633 C45.098,599.776 44.172,600.703 43.028,600.703 z" fill="#000000"/>
    <path d="M165.758,476.856 C162.282,476.856 159.464,474.038 159.464,470.562 C159.464,467.086 162.282,464.269 165.758,464.269 C169.234,464.269 172.052,467.086 172.052,470.562 C172.052,474.038 169.234,476.856 165.758,476.856 z" fill="#515151"/>
  </g>
</svg>
