<?xml version="1.0" encoding="UTF-8"?>
<!DOCTYPE svg PUBLIC "-//W3C//DTD SVG 1.1//EN" "http://www.w3.org/Graphics/SVG/1.1/DTD/svg11.dtd">
<svg version="1.1" xmlns="http://www.w3.org/2000/svg" xmlns:xlink="http://www.w3.org/1999/xlink" x="0" y="0" width="2048" height="1536" viewBox="0, 0, 1024, 768">
  <defs>
    <clipPath id="Clip_1">
      <path d="M895.251,240.684 L895.251,552.601 L129.097,552.601 L129.097,240.684 L895.251,240.684 z"/>
    </clipPath>
    <filter id="InnerShadow_2">
      <feGaussianBlur in="SourceAlpha" stdDeviation="16"/>
      <feOffset dx="0" dy="15" result="offsetblur"/>
      <feFlood flood-color="#000000"/>
      <feComposite in2="offsetblur" operator="in"/>
    </filter>
    <clipPath id="Clip_3">
      <path d="M211.894,283.883 L433.414,283.883 L433.414,509.402 L211.894,509.402 z M322.654,301.883 C270.32,301.883 227.894,344.308 227.894,396.642 C227.894,448.977 270.32,491.402 322.654,491.402 C374.988,491.402 417.414,448.977 417.414,396.642 C417.414,344.308 374.988,301.883 322.654,301.883 z"/>
    </clipPath>
    <filter id="Shadow_4">
      <feGaussianBlur in="SourceAlpha" stdDeviation="7.5"/>
      <feOffset dx="0" dy="2" result="offsetblur"/>
      <feFlood flood-color="#000000"/>
      <feComposite in2="offsetblur" operator="in"/>
    </filter>
    <clipPath id="Clip_5">
      <path d="M590.934,283.883 L812.453,283.883 L812.453,509.402 L590.934,509.402 z M701.694,301.883 C649.359,301.883 606.934,344.308 606.934,396.642 C606.934,448.977 649.359,491.402 701.694,491.402 C754.028,491.402 796.453,448.977 796.453,396.642 C796.453,344.308 754.028,301.883 701.693,301.883 z"/>
    </clipPath>
    <filter id="Shadow_6">
      <feGaussianBlur in="SourceAlpha" stdDeviation="7.5"/>
      <feOffset dx="0" dy="2" result="offsetblur"/>
      <feFlood flood-color="#000000"/>
      <feComposite in2="offsetblur" operator="in"/>
    </filter>
    <clipPath id="Clip_7">
      <path d="M322.654,327.017 C361.107,327.017 392.28,358.189 392.28,396.642 C392.28,435.096 361.107,466.268 322.654,466.268 C284.201,466.268 253.028,435.096 253.028,396.642 C253.028,358.189 284.201,327.017 322.654,327.017 z"/>
    </clipPath>
    <filter id="InnerShadow_8">
      <feGaussianBlur in="SourceAlpha" stdDeviation="7.5"/>
      <feOffset dx="0" dy="2" result="offsetblur"/>
      <feFlood flood-color="#000000"/>
      <feComposite in2="offsetblur" operator="in"/>
    </filter>
    <clipPath id="Clip_9">
      <path d="M701.693,327.017 C740.147,327.017 771.319,358.189 771.319,396.642 C771.319,435.096 740.147,466.268 701.693,466.268 C663.24,466.268 632.068,435.096 632.068,396.642 C632.068,358.189 663.24,327.017 701.693,327.017 z"/>
    </clipPath>
    <filter id="InnerShadow_10">
      <feGaussianBlur in="SourceAlpha" stdDeviation="7.5"/>
      <feOffset dx="0" dy="2" result="offsetblur"/>
      <feFlood flood-color="#000000"/>
      <feComposite in2="offsetblur" operator="in"/>
    </filter>
  </defs>
  <g id="Speaker" display="none">
    <path d="M299.608,157.145 L299.608,610.855 L324.896,563.096 L324.896,246.379 L299.608,157.145" fill="#572800"/>
    <path d="M31.907,157.145 L299.608,157.145 L299.608,610.855 L31.907,610.855 L31.907,157.145 z" fill="#833F00"/>
    <path d="M165.758,349.803 C130.13,349.803 101.248,320.921 101.248,285.293 C101.248,249.665 130.13,220.782 165.758,220.782 C201.386,220.782 230.268,249.665 230.268,285.293 C230.268,320.921 201.386,349.803 165.758,349.803 z" fill="#572800"/>
    <path d="M165.758,338.292 C136.487,338.292 112.758,314.564 112.758,285.293 C112.758,256.022 136.487,232.293 165.758,232.293 C195.029,232.293 218.757,256.022 218.757,285.293 C218.757,314.564 195.029,338.292 165.758,338.292 z" fill="#000000"/>
    <path d="M165.758,565.361 C113.402,565.361 70.959,522.918 70.959,470.562 C70.959,418.206 113.402,375.764 165.758,375.764 C218.114,375.764 260.557,418.206 260.557,470.562 C260.557,522.918 218.114,565.361 165.758,565.361 z" fill="#572800"/>
    <path d="M165.758,548.446 C122.744,548.446 87.874,513.576 87.874,470.562 C87.874,427.548 122.744,392.679 165.758,392.679 C208.772,392.679 243.641,427.548 243.641,470.562 C243.641,513.576 208.772,548.446 165.758,548.446 z" fill="#000000"/>
    <path d="M165.758,291.586 C162.282,291.586 159.464,288.769 159.464,285.293 C159.464,281.817 162.282,278.999 165.758,278.999 C169.234,278.999 172.052,281.817 172.052,285.293 C172.052,288.769 169.234,291.586 165.758,291.586 z" fill="#515151"/>
    <path d="M731.012,157.145 L731.012,610.855 L705.725,563.096 L705.725,246.379 L731.012,157.145" fill="#572800"/>
    <path d="M165.758,345.87 C164.615,345.87 163.688,344.944 163.688,343.8 C163.688,342.657 164.615,341.73 165.758,341.73 C166.901,341.73 167.828,342.657 167.828,343.8 C167.828,344.944 166.901,345.87 165.758,345.87 z" fill="#000000"/>
    <path d="M165.758,229.106 C164.615,229.106 163.688,228.18 163.688,227.036 C163.688,225.893 164.615,224.966 165.758,224.966 C166.901,224.966 167.828,225.893 167.828,227.036 C167.828,228.18 166.901,229.106 165.758,229.106 z" fill="#000000"/>
    <path d="M293.499,165.678 C292.356,165.678 291.429,164.752 291.429,163.608 C291.429,162.465 292.356,161.538 293.499,161.538 C294.642,161.538 295.569,162.465 295.569,163.608 C295.569,164.752 294.642,165.678 293.499,165.678 z" fill="#000000"/>
    <path d="M43.028,169.818 C41.885,169.818 40.958,168.892 40.958,167.748 C40.958,166.605 41.885,165.678 43.028,165.678 C44.172,165.678 45.098,166.605 45.098,167.748 C45.098,168.892 44.172,169.818 43.028,169.818 z" fill="#000000"/>
    <path d="M289.359,600.703 C288.216,600.703 287.289,599.776 287.289,598.633 C287.289,597.49 288.216,596.563 289.359,596.563 C290.502,596.563 291.429,597.49 291.429,598.633 C291.429,599.776 290.502,600.703 289.359,600.703 z" fill="#000000"/>
    <path d="M43.028,600.703 C41.885,600.703 40.958,599.776 40.958,598.633 C40.958,597.49 41.885,596.563 43.028,596.563 C44.172,596.563 45.098,597.49 45.098,598.633 C45.098,599.776 44.172,600.703 43.028,600.703 z" fill="#000000"/>
    <path d="M165.758,476.856 C162.282,476.856 159.464,474.038 159.464,470.562 C159.464,467.086 162.282,464.269 165.758,464.269 C169.234,464.269 172.052,467.086 172.052,470.562 C172.052,474.038 169.234,476.856 165.758,476.856 z" fill="#515151"/>
    <path d="M731.012,157.145 L998.713,157.145 L998.713,610.855 L731.012,610.855 L731.012,157.145 z" fill="#833F00"/>
    <path d="M864.862,349.803 C829.234,349.803 800.352,320.921 800.352,285.293 C800.352,249.665 829.234,220.782 864.862,220.782 C900.49,220.782 929.373,249.665 929.373,285.293 C929.373,320.921 900.49,349.803 864.862,349.803 z" fill="#572800"/>
    <path d="M864.862,338.292 C835.591,338.292 811.863,314.564 811.863,285.293 C811.863,256.022 835.591,232.293 864.862,232.293 C894.133,232.293 917.862,256.022 917.862,285.293 C917.862,314.564 894.133,338.292 864.862,338.292 z" fill="#000000"/>
    <path d="M864.862,565.361 C812.506,565.361 770.064,522.918 770.064,470.562 C770.064,418.206 812.506,375.764 864.862,375.764 C917.218,375.764 959.661,418.206 959.661,470.562 C959.661,522.918 917.218,565.361 864.862,565.361 z" fill="#572800"/>
    <path d="M864.862,548.446 C821.848,548.446 786.979,513.576 786.979,470.562 C786.979,427.548 821.848,392.679 864.862,392.679 C907.876,392.679 942.746,427.548 942.746,470.562 C942.746,513.576 907.876,548.446 864.862,548.446 z" fill="#000000"/>
    <path d="M864.862,291.586 C861.386,291.586 858.569,288.769 858.569,285.293 C858.569,281.817 861.386,278.999 864.862,278.999 C868.338,278.999 871.156,281.817 871.156,285.293 C871.156,288.769 868.338,291.586 864.862,291.586 z" fill="#515151"/>
    <path d="M864.862,345.87 C863.719,345.87 862.792,344.944 862.792,343.8 C862.792,342.657 863.719,341.73 864.862,341.73 C866.005,341.73 866.932,342.657 866.932,343.8 C866.932,344.944 866.005,345.87 864.862,345.87 z" fill="#000000"/>
    <path d="M864.862,229.106 C863.719,229.106 862.792,228.18 862.792,227.036 C862.792,225.893 863.719,224.966 864.862,224.966 C866.005,224.966 866.932,225.893 866.932,227.036 C866.932,228.18 866.005,229.106 864.862,229.106 z" fill="#000000"/>
    <path d="M992.603,165.678 C991.46,165.678 990.533,164.752 990.533,163.608 C990.533,162.465 991.46,161.538 992.603,161.538 C993.747,161.538 994.673,162.465 994.673,163.608 C994.673,164.752 993.747,165.678 992.603,165.678 z" fill="#000000"/>
    <path d="M742.133,169.818 C740.99,169.818 740.063,168.892 740.063,167.748 C740.063,166.605 740.99,165.678 742.133,165.678 C743.276,165.678 744.203,166.605 744.203,167.748 C744.203,168.892 743.276,169.818 742.133,169.818 z" fill="#000000"/>
    <path d="M988.463,600.703 C987.32,600.703 986.393,599.776 986.393,598.633 C986.393,597.49 987.32,596.563 988.463,596.563 C989.607,596.563 990.533,597.49 990.533,598.633 C990.533,599.776 989.607,600.703 988.463,600.703 z" fill="#000000"/>
    <path d="M742.133,600.703 C740.99,600.703 740.063,599.776 740.063,598.633 C740.063,597.49 740.99,596.563 742.133,596.563 C743.276,596.563 744.203,597.49 744.203,598.633 C744.203,599.776 743.276,600.703 742.133,600.703 z" fill="#000000"/>
    <path d="M864.862,476.856 C861.386,476.856 858.569,474.038 858.569,470.562 C858.569,467.086 861.386,464.269 864.862,464.269 C868.338,464.269 871.156,467.086 871.156,470.562 C871.156,474.038 868.338,476.856 864.862,476.856 z" fill="#515151"/>
  </g>
  <g id="Dial" display="none">
    <path d="M386.431,218.773 L651.673,218.773 L651.673,549.227 L386.431,549.227 L386.431,218.773 z" fill="#EEEEEE"/>
    <path d="M610.709,357.529 C621.238,406.054 590.436,453.926 541.911,464.455 C493.386,474.983 445.514,444.181 434.986,395.657 C424.457,347.132 455.259,299.26 503.784,288.731 C552.308,278.203 600.18,309.005 610.709,357.529 z" fill="#383838"/>
    <path d="M435.098,396.174 L430.743,376.105 L606.467,337.978 L610.821,358.046 L435.098,396.174 z" fill="#383838"/>
    <g>
      <g>
        <path d="M606.914,340.037 C617.442,388.562 586.64,436.434 538.116,446.962 C489.591,457.491 441.719,426.689 431.19,378.165 C420.662,329.64 451.464,281.768 499.988,271.239 C548.513,260.711 596.385,291.512 606.914,340.037 z" fill="#686868"/>
        <path d="M522.546,269.241 C564.538,271.992 596.947,299.127 606.914,340.037 C617.442,388.562 586.64,436.434 538.116,446.962 C489.591,457.491 441.719,426.689 431.19,378.165 C420.662,329.64 451.464,281.768 499.988,271.239 C505.402,270.207 507.167,269.752 513.588,269.348 C516.569,269.161 519.56,269.277 522.546,269.241 z M519.678,272.15 C513.26,272.016 506.921,273.08 500.624,274.171 C453.719,284.348 423.945,330.623 434.122,377.528 C444.299,424.434 490.574,454.208 537.479,444.03 C584.385,433.853 614.159,387.579 603.982,340.673 C596.791,308.354 571.558,282.288 539.262,274.557 C531.877,272.789 529.985,272.904 522.43,272.239 L519.678,272.15 z" fill="#929292"/>
      </g>
      <path d="M519.552,275.979 L519.552,287.168" fill-opacity="0" stroke="#FFFFFF" stroke-width="3"/>
    </g>
    <g>
      <path d="M0.5,0.5 L0.5,0.5" fill="#572800"/>
      <path d="M0.5,0.5 L0.5,0.5" fill-opacity="0" stroke="#000000" stroke-width="1"/>
    </g>
  </g>
  <g id="Mixtape">
    <path d="M0.348,-0 L1024,-0 L1024,768 L0.348,768 L0.348,-0 z" fill="#FFF4B8"/>
    <path d="M0.348,701.022 L1024,701.022 L1024,768 L0.348,768 L0.348,701.022 z" fill="#D11D00"/>
    <path d="M-0,604.064 L1024,604.064 L1024,663.46 L-0,663.46 L-0,604.064 z" fill="#D11D00"/>
    <path d="M0.174,507.106 L1024,507.106 L1024,552.601 L0.174,552.601 L0.174,507.106 z" fill="#D11D00"/>
    <path d="M0.348,410.149 L1024,410.149 L1024,446.797 L0.348,446.797 L0.348,410.149 z" fill="#D11D00"/>
    <path d="M0.348,321.625 L1024,321.625 L1024,348.164 L0.348,348.164 L0.348,321.625 z" fill="#D11D00"/>
    <path d="M0.348,240.684 L1024,240.684 L1024,250.794 L0.348,250.794 L0.348,240.684 z" fill="#D11D00"/>
    <text transform="matrix(1, 0, 0, 1, 512, 175.688)" display="none">
      <tspan x="-420.975" y="17.004" font-family="Chalkduster" font-size="84" kerning="6" fill="#130840">WATSONG Vol. 1</tspan>
    </text>
  </g>
  <g id="Dials" display="none">
    <g>
      <path d="M129.097,240.684 L895.251,240.684 L895.251,552.601 L129.097,552.601 L129.097,240.684 z" fill="#7D7D7D"/>
      <path d="M96.097,192.684 L928.251,192.684 L928.251,600.601 L96.097,600.601 z M895.251,240.684 L129.097,240.684 L129.097,552.601 L895.251,552.601 L895.251,240.684 z" clip-path="url(#Clip_1)" filter="url(#InnerShadow_2)" fill="rgba(0,0,0,0.75)"/>
    </g>
    <g>
      <path d="M322.654,301.883 C374.988,301.883 417.414,344.308 417.414,396.642 C417.414,448.977 374.988,491.402 322.654,491.402 C270.32,491.402 227.894,448.977 227.894,396.642 C227.894,344.308 270.32,301.883 322.654,301.883 z" clip-path="url(#Clip_3)" filter="url(#Shadow_4)" fill="rgba(0,0,0,0.75)"/>
      <path d="M322.654,491.402 C270.32,491.402 227.894,448.977 227.894,396.642 C227.894,344.308 270.32,301.883 322.654,301.883 C374.988,301.883 417.414,344.308 417.414,396.642 C417.414,448.977 374.988,491.402 322.654,491.402 z" fill="#DDDDDD"/>
    </g>
    <g>
      <path d="M701.693,301.883 C754.028,301.883 796.453,344.308 796.453,396.642 C796.453,448.977 754.028,491.402 701.694,491.402 C649.359,491.402 606.934,448.977 606.934,396.642 C606.934,344.308 649.359,301.883 701.694,301.883 z" clip-path="url(#Clip_5)" filter="url(#Shadow_6)" fill="rgba(0,0,0,0.75)"/>
      <path d="M701.694,491.402 C649.359,491.402 606.934,448.977 606.934,396.642 C606.934,344.308 649.359,301.883 701.694,301.883 C754.028,301.883 796.453,344.308 796.453,396.642 C796.453,448.977 754.028,491.402 701.694,491.402 z" fill="#DDDDDD"/>
    </g>
    <g>
      <path d="M322.654,466.268 C284.201,466.268 253.028,435.096 253.028,396.642 C253.028,358.189 284.201,327.017 322.654,327.017 C361.107,327.017 392.28,358.189 392.28,396.642 C392.28,435.096 361.107,466.268 322.654,466.268 z" fill="#7D7D7D"/>
      <path d="M237.028,309.017 L408.28,309.017 L408.28,484.268 L237.028,484.268 z M322.654,327.017 C284.201,327.017 253.028,358.189 253.028,396.642 C253.028,435.096 284.201,466.268 322.654,466.268 C361.107,466.268 392.28,435.096 392.28,396.642 C392.28,358.189 361.107,327.017 322.654,327.017 z" clip-path="url(#Clip_7)" filter="url(#InnerShadow_8)" fill="rgba(0,0,0,0.75)"/>
    </g>
    <g>
      <path d="M701.693,466.268 C663.24,466.268 632.068,435.096 632.068,396.642 C632.068,358.189 663.24,327.017 701.693,327.017 C740.147,327.017 771.319,358.189 771.319,396.642 C771.319,435.096 740.147,466.268 701.693,466.268 z" fill="#7D7D7D"/>
      <path d="M616.068,309.017 L787.319,309.017 L787.319,484.268 L616.068,484.268 z M701.693,327.017 C663.24,327.017 632.068,358.189 632.068,396.642 C632.068,435.096 663.24,466.268 701.693,466.268 C740.147,466.268 771.319,435.096 771.319,396.642 C771.319,358.189 740.147,327.017 701.693,327.017 z" clip-path="url(#Clip_9)" filter="url(#InnerShadow_10)" fill="rgba(0,0,0,0.75)"/>
    </g>
  </g>
</svg>
