<?xml version="1.0" encoding="UTF-8"?>
<!DOCTYPE svg PUBLIC "-//W3C//DTD SVG 1.1//EN" "http://www.w3.org/Graphics/SVG/1.1/DTD/svg11.dtd">
<svg version="1.1" xmlns="http://www.w3.org/2000/svg" xmlns:xlink="http://www.w3.org/1999/xlink" x="0" y="0" width="585.977" height="907.419" viewBox="0, 0, 292.988, 453.709">
  <g id="Speaker" transform="translate(-705.725, -157.145)">
    <path d="M731.012,157.145 L731.012,610.855 L705.725,563.096 L705.725,246.379 L731.012,157.145" fill="#572800"/>
    <path d="M731.012,157.145 L998.713,157.145 L998.713,610.855 L731.012,610.855 L731.012,157.145 z" fill="#833F00"/>
    <path d="M864.862,349.803 C829.234,349.803 800.352,320.921 800.352,285.293 C800.352,249.665 829.234,220.782 864.862,220.782 C900.49,220.782 929.373,249.665 929.373,285.293 C929.373,320.921 900.49,349.803 864.862,349.803 z" fill="#572800"/>
    <path d="M864.862,338.292 C835.591,338.292 811.863,314.564 811.863,285.293 C811.863,256.022 835.591,232.293 864.862,232.293 C894.133,232.293 917.862,256.022 917.862,285.293 C917.862,314.564 894.133,338.292 864.862,338.292 z" fill="#000000"/>
    <path d="M864.862,565.361 C812.506,565.361 770.064,522.918 770.064,470.562 C770.064,418.206 812.506,375.764 864.862,375.764 C917.218,375.764 959.661,418.206 959.661,470.562 C959.661,522.918 917.218,565.361 864.862,565.361 z" fill="#572800"/>
    <path d="M864.862,548.446 C821.848,548.446 786.979,513.576 786.979,470.562 C786.979,427.548 821.848,392.679 864.862,392.679 C907.876,392.679 942.746,427.548 942.746,470.562 C942.746,513.576 907.876,548.446 864.862,548.446 z" fill="#000000"/>
    <path d="M864.862,291.586 C861.386,291.586 858.569,288.769 858.569,285.293 C858.569,281.817 861.386,278.999 864.862,278.999 C868.338,278.999 871.156,281.817 871.156,285.293 C871.156,288.769 868.338,291.586 864.862,291.586 z" fill="#515151"/>
    <path d="M864.862,345.87 C863.719,345.87 862.792,344.944 862.792,343.8 C862.792,342.657 863.719,341.73 864.862,341.73 C866.005,341.73 866.932,342.657 866.932,343.8 C866.932,344.944 866.005,345.87 864.862,345.87 z" fill="#000000"/>
    <path d="M864.862,229.106 C863.719,229.106 862.792,228.18 862.792,227.036 C862.792,225.893 863.719,224.966 864.862,224.966 C866.005,224.966 866.932,225.893 866.932,227.036 C866.932,228.18 866.005,229.106 864.862,229.106 z" fill="#000000"/>
    <path d="M992.603,165.678 C991.46,165.678 990.533,164.752 990.533,163.608 C990.533,162.465 991.46,161.538 992.603,161.538 C993.747,161.538 994.673,162.465 994.673,163.608 C994.673,164.752 993.747,165.678 992.603,165.678 z" fill="#000000"/>
    <path d="M742.133,169.818 C740.99,169.818 740.063,168.892 740.063,167.748 C740.063,166.605 740.99,165.678 742.133,165.678 C743.276,165.678 744.203,166.605 744.203,167.748 C744.203,168.892 743.276,169.818 742.133,169.818 z" fill="#000000"/>
    <path d="M988.463,600.703 C987.32,600.703 986.393,599.776 986.393,598.633 C986.393,597.49 987.32,596.563 988.463,596.563 C989.607,596.563 990.533,597.49 990.533,598.633 C990.533,599.776 989.607,600.703 988.463,600.703 z" fill="#000000"/>
    <path d="M742.133,600.703 C740.99,600.703 740.063,599.776 740.063,598.633 C740.063,597.49 740.99,596.563 742.133,596.563 C743.276,596.563 744.203,597.49 744.203,598.633 C744.203,599.776 743.276,600.703 742.133,600.703 z" fill="#000000"/>
    <path d="M864.862,476.856 C861.386,476.856 858.569,474.038 858.569,470.562 C858.569,467.086 861.386,464.269 864.862,464.269 C868.338,464.269 871.156,467.086 871.156,470.562 C871.156,474.038 868.338,476.856 864.862,476.856 z" fill="#515151"/>
  </g>
</svg>
